<svg width="32" height="32" viewBox="0 0 32 32" fill="none" xmlns="http://www.w3.org/2000/svg">
<path d="M15.94 9.472L17.8555 11.5804C18.0191 11.76 18.3177 11.6444 18.3177 11.4027V6.35378C18.3177 6.28336 18.3456 6.2158 18.3952 6.16584C18.4448 6.11588 18.5122 6.08758 18.5826 6.08711H22.1026C23.6475 6.08711 25.0786 6.89422 25.8706 8.21156L26.5657 9.36711C26.6119 9.44373 26.6771 9.50714 26.755 9.55121C26.8328 9.59528 26.9207 9.61851 27.0102 9.61867H27.0369C27.1746 9.61843 27.3067 9.56354 27.404 9.46605C27.5013 9.36856 27.556 9.23643 27.556 9.09867V3.84711C27.556 3.70935 27.5013 3.57722 27.404 3.47973C27.3067 3.38224 27.1746 3.32735 27.0369 3.32711H18.8484C18.7077 3.32711 18.5727 3.2712 18.4732 3.17168C18.3737 3.07216 18.3177 2.93719 18.3177 2.79644V0.398222C18.3177 0.178667 18.14 0 17.9195 0H16.0626C15.8431 0 15.6644 0.177778 15.6644 0.398222V2.79644C15.6644 3.08978 15.4271 3.328 15.1337 3.328H4.96486C4.82725 3.328 4.69526 3.38254 4.59779 3.47968C4.50032 3.57681 4.44533 3.70862 4.44486 3.84622V5.08533C4.44486 5.21867 4.49641 5.34667 4.58797 5.44356L15.9986 15.6427C16.0899 15.7389 16.1407 15.8665 16.1407 15.9991C16.1407 16.1317 16.0899 16.2593 15.9986 16.3556L4.58708 26.5556C4.49529 26.6522 4.44407 26.7805 4.44397 26.9138V28.1529C4.44397 28.44 4.67686 28.672 4.96397 28.672H15.1329C15.4262 28.672 15.6635 28.9102 15.6635 29.2036V31.6018C15.6635 31.8213 15.8413 32 16.0617 32H17.9186C18.1382 32 18.3169 31.8222 18.3169 31.6018V29.2036C18.3169 28.9102 18.5542 28.6729 18.8466 28.6729H27.0351C27.1036 28.673 27.1715 28.6596 27.2348 28.6334C27.2981 28.6072 27.3556 28.5688 27.404 28.5203C27.4524 28.4718 27.4907 28.4142 27.5168 28.3509C27.5429 28.2875 27.5562 28.2196 27.556 28.1511V22.9004C27.556 22.7625 27.5012 22.6303 27.4037 22.5327C27.3061 22.4352 27.1739 22.3804 27.036 22.3804H27.0111C26.9213 22.3803 26.833 22.4034 26.7548 22.4475C26.6767 22.4915 26.6112 22.5551 26.5649 22.632L25.8706 23.7876C25.4792 24.4364 24.9266 24.973 24.2665 25.3453C23.6064 25.7175 22.8613 25.9127 22.1035 25.912H18.5826C18.5477 25.9119 18.5132 25.9049 18.481 25.8914C18.4488 25.878 18.4196 25.8583 18.395 25.8335C18.3704 25.8088 18.3509 25.7794 18.3376 25.7471C18.3244 25.7148 18.3176 25.6802 18.3177 25.6453V20.5964C18.318 20.5427 18.3018 20.4902 18.2715 20.4459C18.2412 20.4015 18.1981 20.3674 18.148 20.3481C18.0978 20.3289 18.043 20.3253 17.9908 20.3379C17.9385 20.3505 17.8914 20.3786 17.8555 20.4187L15.94 22.5271C15.7622 22.7227 15.6644 22.9769 15.6644 23.2418V25.6462C15.6644 25.7165 15.6365 25.7838 15.5868 25.8335C15.5372 25.8832 15.4698 25.9111 15.3995 25.9111H8.87153C8.85667 25.9115 8.84197 25.908 8.82888 25.901C8.81578 25.894 8.80475 25.8837 8.79686 25.8711C8.78812 25.8562 8.7842 25.839 8.78563 25.8218C8.78706 25.8047 8.79378 25.7883 8.80486 25.7751L18.9764 16.2169L18.9782 16.2142C19.0276 16.1533 19.0546 16.0772 19.0546 15.9987C19.0546 15.9202 19.0276 15.8441 18.9782 15.7831L18.9764 15.7813L8.80486 6.224C8.79378 6.21078 8.78706 6.19446 8.78563 6.17727C8.7842 6.16008 8.78812 6.14287 8.79686 6.128C8.80475 6.11541 8.81578 6.1051 8.82888 6.09808C8.84197 6.09107 8.85667 6.08759 8.87153 6.088H15.3995C15.5453 6.088 15.6644 6.20622 15.6644 6.35289V8.75733C15.6644 9.02133 15.7622 9.27644 15.94 9.472Z" fill="black"/>
</svg>
